<svg id="Layer_1" data-name="Layer 1" xmlns="http://www.w3.org/2000/svg" viewBox="0 0 742.47 211.94"><defs><style>.cls-1{fill:#2c3b48;}.cls-2{fill:#f9f9da;}</style></defs><title>Galaxy</title><rect class="cls-1" width="742.47" height="211.94"/><path class="cls-2" d="M99.9,41.59a.65.65,0,0,1,.63.39.68.68,0,0,1-.08.75L89.26,57H99.58a.7.7,0,0,1,0,1.41H87.82a.65.65,0,0,1-.63-.4.63.63,0,0,1,.08-.74L98.46,43H88.13a.7.7,0,0,1-.7-.69.69.69,0,0,1,.21-.5.67.67,0,0,1,.49-.2Z"/><path class="cls-2" d="M150,58.42a.72.72,0,0,1-.7-.7V42.29a.65.65,0,0,1,.21-.49.62.62,0,0,1,.49-.21l9.3,0a.65.65,0,0,1,.49.21.67.67,0,0,1,.21.49.69.69,0,0,1-.21.5.67.67,0,0,1-.49.2l-8.6,0v6.3h6.43a.7.7,0,0,1,0,1.41h-6.43V57h8.6a.7.7,0,0,1,0,1.41Z"/><path class="cls-2" d="M221,58.17h0L210.26,44.33V57.71a.7.7,0,0,1-1.41,0V42.28a.7.7,0,0,1,1.25-.43l10.73,13.82V42.28a.7.7,0,0,1,.69-.7.69.69,0,0,1,.5.21.67.67,0,0,1,.2.49V57.76a.22.22,0,0,1,0,.07.19.19,0,0,1,0,.06l0,.07,0,.06a.15.15,0,0,1,0,.06l0,.06,0,.06,0,0,0,0,0,0,0,0-.07,0,0,0-.08,0h-.36l-.09,0,0,0-.08,0,0,0,0,0Z"/><path class="cls-2" d="M323.84,55.94a8.41,8.41,0,0,1,5.94-14.36,8.2,8.2,0,0,1,5.12,1.73.69.69,0,0,1,.27.47.65.65,0,0,1-.14.53.66.66,0,0,1-.47.27.69.69,0,0,1-.52-.14A6.81,6.81,0,0,0,329.78,43a7,7,0,0,0-4.95,12,7,7,0,0,0,9.66.23A.7.7,0,0,1,335,55a.67.67,0,0,1,.49.23.72.72,0,0,1,0,1,8.17,8.17,0,0,1-5.67,2.19A8.08,8.08,0,0,1,323.84,55.94Zm10.77,2.26a.67.67,0,0,1-.2-.49V50.28h-5.88a.71.71,0,0,1-.5-.2.69.69,0,0,1-.21-.5.65.65,0,0,1,.21-.49.69.69,0,0,1,.5-.21h6.59a.69.69,0,0,1,.5.21.67.67,0,0,1,.2.49v8.13a.67.67,0,0,1-.2.49.71.71,0,0,1-1,0Z"/><path class="cls-2" d="M384.63,58.36a.64.64,0,0,1-.37-.37.65.65,0,0,1,0-.54l1.63-3.93h0l4.75-11.45.06-.13,0,0,0-.06.06,0,0,0a.62.62,0,0,1,.25-.11h.27a.62.62,0,0,1,.26.11l0,0,.06,0,0,.06,0,0,.06.13,4.75,11.45h0l1.63,3.93a.65.65,0,0,1,0,.54.64.64,0,0,1-.37.38A.68.68,0,0,1,397,58l-1.45-3.49H387L385.55,58a.64.64,0,0,1-.64.43h-.14ZM395,53.08l-3.7-8.93-3.7,8.93Z"/><path class="cls-2" d="M452.71,41.64A5,5,0,0,1,456.17,43a4.27,4.27,0,0,1,.26,6.13,4.8,4.8,0,0,1-2.89,1.52l3.34,6.81a.65.65,0,0,1,0,.53.68.68,0,0,1-.35.4.67.67,0,0,1-.3.07.64.64,0,0,1-.62-.39L452,50.68H448.1v6.93a.7.7,0,0,1-.7.69.68.68,0,0,1-.69-.69V42.33a.67.67,0,0,1,.2-.49.69.69,0,0,1,.49-.2Zm3.52,4.52a2.85,2.85,0,0,0-1-2.21,3.59,3.59,0,0,0-2.48-.93H448.1v6.27h4.69a3.55,3.55,0,0,0,2.43-.94A2.86,2.86,0,0,0,456.22,46.16Z"/><path class="cls-2" d="M507.43,58.42a.67.67,0,0,1-.49-.2.69.69,0,0,1-.21-.5V42.3a.69.69,0,0,1,.21-.5.65.65,0,0,1,.49-.21h3.9a8.39,8.39,0,0,1,5.93,14.32,8.08,8.08,0,0,1-5.93,2.46l-3.89,0Zm.7-1.42,3.19,0a7,7,0,1,0,0-13.95h-3.2Z"/><path class="cls-2" d="M569.81,58.42a.72.72,0,0,1-.7-.7V42.29a.65.65,0,0,1,.21-.49.62.62,0,0,1,.49-.21l9.3,0a.65.65,0,0,1,.49.21.67.67,0,0,1,.21.49.69.69,0,0,1-.21.5.67.67,0,0,1-.49.2l-8.6,0v6.3H577a.7.7,0,0,1,0,1.41h-6.43V57h8.6a.7.7,0,0,1,0,1.41Z"/><path class="cls-2" d="M640.79,58.17h0L630,44.33V57.71a.7.7,0,0,1-1.41,0V42.28a.7.7,0,0,1,1.25-.43l10.73,13.82V42.28a.7.7,0,0,1,.69-.7.69.69,0,0,1,.5.21.67.67,0,0,1,.2.49V57.76a.22.22,0,0,1,0,.07.19.19,0,0,1,0,.06l0,.07,0,.06a.15.15,0,0,1,0,.06l0,.06,0,.06,0,0,0,0,0,0,0,0-.07,0,0,0-.08,0h-.36l-.09,0,0,0-.08,0,0,0,0,0Z"/><path class="cls-2" d="M130.54,167.17v-43a3.54,3.54,0,0,0-1.05-2.61,3.64,3.64,0,0,0-2.67-1.12H92a3.64,3.64,0,0,0-2.67,1.12,3.44,3.44,0,0,0-1.12,2.61,3.64,3.64,0,0,0,1.12,2.67A3.75,3.75,0,0,0,92,127.84h31.14v26.31a35.74,35.74,0,0,1-24.5,9.24,37.06,37.06,0,0,1-37-37,37.17,37.17,0,0,1,37-37.09,36.05,36.05,0,0,1,22.58,7.69,3.65,3.65,0,0,0,2.73.74,3.5,3.5,0,0,0,2.48-1.43,3.43,3.43,0,0,0,.74-2.79A3.67,3.67,0,0,0,125.7,91a43.4,43.4,0,0,0-27.11-9.18,44.58,44.58,0,0,0-44.54,44.54A42.75,42.75,0,0,0,67.14,157.8a42.75,42.75,0,0,0,31.45,13.09,43,43,0,0,0,24.5-7.28"/><path class="cls-2" d="M241,145v-.06l-25.12-60.6c-.08-.21-.19-.43-.31-.68,0,0-.08,0-.25-.25l-.25-.31s-.15-.08-.31-.25l-.25-.19a3.31,3.31,0,0,0-1.36-.56h-.31l-.37-.06-.43.06h-.31a3.29,3.29,0,0,0-1.3.56s0,0-.25.19l-.31.25a3.9,3.9,0,0,0-.25.31l-.25.25c-.12.25-.23.48-.31.68L183.9,144.9V145l-8.62,20.78a3.44,3.44,0,0,0,0,2.85,3.36,3.36,0,0,0,2,2l.68.31h.74a3.4,3.4,0,0,0,3.41-2.29l7.69-18.49h45.28l7.69,18.49a3.62,3.62,0,0,0,4.84,2,3.36,3.36,0,0,0,2-2,3.44,3.44,0,0,0,0-2.85Zm-48.14-2.29,19.6-47.27L232,142.66Z"/><path class="cls-2" d="M342.22,163.51H302V85.84a3.71,3.71,0,0,0-3.66-3.72,3.64,3.64,0,0,0-2.67,1.12,3.54,3.54,0,0,0-1.05,2.61v81.32a3.61,3.61,0,0,0,3.72,3.72h43.92a3.54,3.54,0,0,0,2.61-1.05,3.64,3.64,0,0,0,1.12-2.67,3.71,3.71,0,0,0-3.72-3.66Z"/><path class="cls-2" d="M566.05,84.73a3.66,3.66,0,0,0-4.28-3,3.62,3.62,0,0,0-2.42,1.55l-25.93,36.6L507.5,83.24a3.44,3.44,0,0,0-2.42-1.55,3.77,3.77,0,0,0-2.79.62,3.79,3.79,0,0,0-.87,5.21l27.48,38.77L501.42,165a3.75,3.75,0,0,0-.62,2.79,3.5,3.5,0,0,0,1.49,2.42,3.75,3.75,0,0,0,2.17.68,3.55,3.55,0,0,0,3-1.55l25.93-36.66,25.93,36.66a3.55,3.55,0,0,0,3,1.55,3.75,3.75,0,0,0,2.17-.68,3.51,3.51,0,0,0,1.49-2.42,3.43,3.43,0,0,0-.62-2.79L538,126.29l27.42-38.77A3.36,3.36,0,0,0,566.05,84.73Z"/><path class="cls-2" d="M673.63,82.68a3.55,3.55,0,0,0-2.73-.74,3.45,3.45,0,0,0-2.48,1.36l-28.47,35.61L611.54,83.3A3.5,3.5,0,0,0,609,81.93a3.45,3.45,0,0,0-2.67.74,3.67,3.67,0,0,0-1.43,2.48,3.76,3.76,0,0,0,.81,2.73l30.58,38.27v41a3.71,3.71,0,0,0,3.66,3.72,3.64,3.64,0,0,0,2.67-1.12,3.54,3.54,0,0,0,1.05-2.6v-41l30.58-38.27a3.77,3.77,0,0,0,.81-2.73A3.67,3.67,0,0,0,673.63,82.68Z"/><path class="cls-2" d="M459.47,165.74,450.85,145v-.06l-25.12-60.6c-.08-.21-.19-.43-.31-.68q0,.06-.25-.25l-.25-.31s-.15-.08-.31-.25l-.25-.19a3.31,3.31,0,0,0-1.36-.56h-.31l-.37-.06-.43.06h-.31a3.29,3.29,0,0,0-1.3.56s0,0-.25.19l-.31.25a3.79,3.79,0,0,0-.25.31l-.25.25q-.19.37-.31.68l-25.12,60.6V145l-8.62,20.78a3.43,3.43,0,0,0,0,2.85,3.36,3.36,0,0,0,2,2l.68.31h.74a3.4,3.4,0,0,0,3.41-2.29l7.69-18.49H445l7.69,18.49a3.62,3.62,0,0,0,4.84,2,3.36,3.36,0,0,0,2-2A3.44,3.44,0,0,0,459.47,165.74ZM403,142l19.6-47.27L442.2,142Z"/></svg>