<svg id="Layer_1" data-name="Layer 1" xmlns="http://www.w3.org/2000/svg" viewBox="0 0 153.17 131.14"><defs><style>.cls-1{fill:#2c3b48;}.cls-2{fill:#f9f9da;}</style></defs><title>Galaxy</title><rect class="cls-1" width="153.17" height="131.14"/><path class="cls-2" d="M139.77,36.85c-1.53-4.22-7-5-10.84-5.23a60.72,60.72,0,0,0-8.82.25c-1.59.14-3.18.32-4.76.52-1.38.18-2.68.54-3.87-.41-2.38-1.9-4.46-4-7-5.72a46.37,46.37,0,0,0-8-4.23A47,47,0,0,0,32.23,58.77q-.22,1.49-.34,3a18.23,18.23,0,0,1-.14,3.16c-.24.85-1.85,1.51-2.56,2q-1.5,1.11-3,2.27a74.28,74.28,0,0,0-6.14,5.32c-3.2,3.14-7,7.32-7.14,12.08a7.54,7.54,0,0,0,.42,2.73c1.22,3.47,5.61,5.23,13,5.23a60.79,60.79,0,0,0,6.94-.44c1.34-.15,2.67-.34,4-.55.7-.11,1.43-.19,2.12-.36a1.36,1.36,0,0,1,1.47.23c.37.38.66.87,1,1.28q1.07,1.34,2.23,2.6a47.1,47.1,0,0,0,29.5,14.92,47,47,0,0,0,52-46.7,49.9,49.9,0,0,0-.51-7.49,2,2,0,0,1,0-.88c.15-.49,1.28-.84,1.69-1.15q1.68-1.26,3.3-2.6a49.83,49.83,0,0,0,5.84-5.6C138.46,45,141.4,40.8,139.77,36.85ZM37.23,89c-14.08,2.32-19,.25-19.62-1.34-.81-1.94,1.49-4.72,2.55-6.07,3.13-4,7.69-8.36,12.36-10.28.74,3,.54,5.85,1.54,8.88.29.89,3,8.82,3.87,8.68Zm5.67-1.4c-1.43-1.05-2.18-3.2-2.88-4.76a42.34,42.34,0,0,1,65.19-50.26,42.77,42.77,0,0,1,12.65,16.87,17.44,17.44,0,0,1,1.49,4.06,3.44,3.44,0,0,1-.1,1.71,3.5,3.5,0,0,1-1.55,1.64q-3.87,2.52-7.88,4.81c-6,3.42-12.08,6.53-18.31,9.41q-4.88,2.26-9.86,4.32-2.65,1.1-5.31,2.15C70.51,79.8,64.6,81.9,58.6,83.75Q54.45,85,50.24,86.14q-2,.52-4,1C45.36,87.35,43.68,88.13,42.9,87.56Zm78.19-22A42.44,42.44,0,0,1,65.3,105.79a41.88,41.88,0,0,1-11.91-6.24,42.47,42.47,0,0,1-4-3.45q-1-.94-1.87-1.93-.44-.49-.87-1a5.61,5.61,0,0,0-.45-.53c-.22-.2-.57-.23-.44-.65s1-.27,1.29-.34l1.79-.43q1.83-.45,3.65-.94,3.81-1,7.57-2.19,8-2.47,15.81-5.46,3.82-1.46,7.6-3,10-4.15,19.63-9.09,4.51-2.32,8.91-4.84,2.09-1.2,4.14-2.45c.64-.39,1.28-.76,1.9-1.17a2.43,2.43,0,0,1,2.43-.35C121.79,62.4,121.08,64.4,121.08,65.57ZM133.72,43.4a32,32,0,0,1-4.05,4.38c-1.36,1.26-2.57,2.79-4.22,3.7-.58.32-1,.51-1.36.37a1.2,1.2,0,0,1-.57-.6,29.73,29.73,0,0,1-1.16-3q-.85-2.13-1.9-4.16t-2.31-4c-.44-.67-2.3-2.39-1.49-3.14.44-.4,2-.18,2.57-.23l3.05-.24c1.5-.11,3-.24,4.52-.24,5.69,0,8.23,1.23,8.71,2.37C136.16,40.14,134.56,42.27,133.72,43.4Z"/></svg>