<svg id="Layer_1" data-name="Layer 1" xmlns="http://www.w3.org/2000/svg" viewBox="0 0 153.17 132.74"><defs><style>.cls-1{fill:#FDFDF0;}</style></defs><title>Galaxy</title><path class="cls-1" d="M81.77,66.44a3.69,3.69,0,0,1-.08.67,11.14,11.14,0,0,1-.87,3.06,8.06,8.06,0,0,1-4,3.68,6,6,0,0,1-2.34.63c-.74,0-1.51,0-2.26-.08a5.48,5.48,0,0,1-1.61-.47A8.1,8.1,0,0,1,67,71,8.92,8.92,0,0,1,66,68.88a6.64,6.64,0,0,1-.3-1.19,7.8,7.8,0,0,1-.17-1.16,8.93,8.93,0,0,1,.32-1.8,8.11,8.11,0,0,1,.56-1.62,8.55,8.55,0,0,1,2.16-2.85c.48-.41,1-.71,1.47-1.1a4.28,4.28,0,0,1,1.62-.74,7.39,7.39,0,0,1,2.58-.09,8.33,8.33,0,0,1,7.06,5.43A7.67,7.67,0,0,1,81.77,66.44Z"/><path class="cls-1" d="M139.78,77.51c-.21-.58-1-.69-1.5-.72a8.4,8.4,0,0,0-1.22,0l-.66.07c-.19,0-.37.08-.54-.06-.33-.26-.62-.56-1-.79a6.42,6.42,0,0,0-1.11-.59,9.41,9.41,0,0,0-3-.53A1.5,1.5,0,0,0,130,75a7,7,0,0,0-2.65,1.29,9.7,9.7,0,0,0-1.59,1.77,9,9,0,0,0-.65,1.16,4.69,4.69,0,0,0-.24,1.28q0,.21,0,.41a2.52,2.52,0,0,1,0,.44c0,.12-.26.21-.35.28l-.41.31a10.28,10.28,0,0,0-.85.74,2.71,2.71,0,0,0-1,1.67,1,1,0,0,0,.06.38c.17.48.78.72,1.81.72a8.41,8.41,0,0,0,1-.06l.55-.08.29,0a.19.19,0,0,1,.2,0c.05.05.09.12.14.18l.31.36a12.3,12.3,0,0,0,2.37,1.67,4.53,4.53,0,0,0,1.71.39,6.45,6.45,0,0,0,.7,0,6.52,6.52,0,0,0,6.43-7.54.27.27,0,0,1,0-.12c0-.07.18-.12.23-.16l.46-.36a6.9,6.9,0,0,0,.81-.77C139.6,78.64,140,78.06,139.78,77.51Z"/><path class="cls-1" d="M14.94,51.48a15.69,15.69,0,0,1-.62,3.75,29.42,29.42,0,0,0-.67,4.89,60.7,60.7,0,0,0-.32,6.25A61.75,61.75,0,0,0,20,94c.15.31.29.64.45.94s.55.57.76.91c.46.77.74,1.64,1.23,2.43s1.06,1.67,1.62,2.48q1.68,2.44,3.59,4.7a61,61,0,0,0,17,14q2.3,1.27,4.7,2.35c1.41.63,2.78,1.3,4.15,2a14,14,0,0,0,2.76,1.2,20.15,20.15,0,0,0,2.27.4,24.05,24.05,0,0,0,3.42.62,22.29,22.29,0,0,1,3.15.34,61,61,0,0,0,18.41-.1,60.11,60.11,0,0,0,18.16-6,60.77,60.77,0,0,0,8-5c1.16-.85,2.23-1.77,3.31-2.69a16.8,16.8,0,0,0,3.18-2.79,44.7,44.7,0,0,1,3.31-3.48q1.8-2.05,3.42-4.26,1.39-1.9,2.63-3.9.62-1,1.2-2c.21-.37.36-.76.55-1.13s.38-.52.54-.8c.25-.43.15-.45-.25-.56-.17,0-.35-.14-.51-.21s-.5-.18-.74-.28S126,93,125.82,93h-.1c-.34.08-.49.61-.61.87a14.68,14.68,0,0,1-.67,1.4q-.73,1.23-1.52,2.42c-1,1.53-2.2,2.91-3.26,4.41a32.65,32.65,0,0,1-2.6,3.12c-2,2.15-4.31,3.8-6.37,5.83a31.29,31.29,0,0,1-4.48,3.59,61.3,61.3,0,0,1-8.4,4.78c-1.45.69-2.95,1.3-4.46,1.86a56.89,56.89,0,0,1-7.57,2.21,38.67,38.67,0,0,1-6.56,1.08c-1.75.07-3.5.2-5.26.2a58.07,58.07,0,0,1-35.59-12.14,60,60,0,0,1-17-20.87A58.33,58.33,0,0,1,16.73,55q.57-2.85,1.41-5.63a26.25,26.25,0,0,1,1.75-5.06l1.46-2.59a19.54,19.54,0,0,0,.93-2.42,20.5,20.5,0,0,1,1.44-2.58A58.91,58.91,0,0,1,35,23a39.91,39.91,0,0,1,8.67-6.33c.28-.14.58-.25.86-.39,1-.51,1.79-1.27,2.79-1.78s2.08-1,3.14-1.5a57.93,57.93,0,0,1,20.7-4.88Q72.57,8,74,8a58.4,58.4,0,0,1,20.28,3.64,15.37,15.37,0,0,1,4.39,1.93A14.78,14.78,0,0,0,102.59,16a37.27,37.27,0,0,1,4.19,2.22,24.33,24.33,0,0,1,4,2.91,58.82,58.82,0,0,1,7.38,7.17c.67.77,1.16,1.67,1.75,2.5s1.26,1.34,1.81,2.06a45.19,45.19,0,0,1,3.53,5.68A35.56,35.56,0,0,1,128,45.06a35,35,0,0,0,1.54,3.36,20.63,20.63,0,0,1,.72,2.7,58.38,58.38,0,0,1,2,15.25c0,.69-.06,1.35-.1,2a.12.12,0,0,0,.17.15,3.29,3.29,0,0,1,1,0l.51.09.25.05a1,1,0,0,1,.2,0l.13,0s0,0,.13,0v-.09c0-.19,0-.37,0-.56s0-.4,0-.6c0-.38,0-.75,0-1.13a60.33,60.33,0,0,0-6-26.36q-1.26-2.61-2.78-5.09c-.93-1.53-1.73-3.21-2.78-4.66-.66-.91-1.55-1.57-2.27-2.43A61,61,0,0,0,96.54,10.09a60,60,0,0,0-8.74-2.76c-2.87-.67-5.73-.89-8.61-1.37A32.79,32.79,0,0,0,74,5.73,60.73,60.73,0,0,0,60.59,7.22a60.12,60.12,0,0,0-6.46,1.84c-.83.29-1.64.78-2.5,1a10.25,10.25,0,0,0-2.37.55c-1,.47-1.82,1.16-2.82,1.57a32.54,32.54,0,0,0-4.19,2.53q-2,1.24-3.91,2.62a61.15,61.15,0,0,0-7.06,6c-2.19,2.18-4.07,4.58-6.09,6.89a38.22,38.22,0,0,0-3.81,6,60.34,60.34,0,0,0-3.26,6.54q-.94,2.22-1.71,4.51c-.25.76-.51,1.52-.7,2.3-.43,1.73-1.67,3.55-1.39,5.42a6.12,6.12,0,0,0,.41,1.34"/><path class="cls-1" d="M74.1,22.68a43.89,43.89,0,0,0-6.12.43,43.39,43.39,0,0,0-16.65,6A43.86,43.86,0,0,0,33.12,51.25c-.13.35-.24.71-.38,1.06a4,4,0,0,0-.25.61.39.39,0,0,0,0,.24c.08.17.59.12.74.16.37.08.73.17,1.09.29a.53.53,0,0,0,.21,0,.35.35,0,0,0,.23-.13,2,2,0,0,0,.24-.61c.08-.23.18-.45.27-.68q.26-.69.55-1.38.57-1.37,1.24-2.69A43.12,43.12,0,0,1,48,34.43a38.66,38.66,0,0,1,8-4.9l4.51-2.18a6.12,6.12,0,0,1,1.8-.67A20,20,0,0,0,64.35,26a36.37,36.37,0,0,1,5.32-.85,40.13,40.13,0,0,1,4.43-.24,41.6,41.6,0,0,1,37,22.78c.73,1.43.8,2.86,1.59,4.24,2.37,4.11,2.87,9.8,2.87,14.46a41.44,41.44,0,0,1-4.28,18.34c-4.65,9.4-13.56,17.94-23.79,21a3.7,3.7,0,0,0-.9.34,6.4,6.4,0,0,1-.54.36,16,16,0,0,1-2.48.38,29.46,29.46,0,0,1-3.09.6,41.65,41.65,0,0,1-6.4.49q-1.36,0-2.73-.09a40.65,40.65,0,0,1-11.32-2.41c-1.06-.39-2.09-.65-3.11-1.13s-1.94-1.15-3-1.69a30.55,30.55,0,0,1-3-1.85A42.75,42.75,0,0,1,38.25,87.08c-.85-1.44-1.57-2.95-2.28-4.46a34.28,34.28,0,0,1-1.77-4.81Q34,77,33.74,76.17q-.11-.41-.2-.83c0-.18-.09-.66-.24-.76s-.75,0-1,.05l-.62.09a.75.75,0,0,0-.42.14.17.17,0,0,0,0,.09,2,2,0,0,0,.18.77c.09.34.17.67.25,1s.22,1,.36,1.45c0,1.56,1.27,3.5,1.74,5a22.58,22.58,0,0,0,2.1,4.33,38,38,0,0,0,5.23,7.25l1.24,1.36a40.21,40.21,0,0,0,6.72,6.05,43.54,43.54,0,0,0,49.7.24,44.7,44.7,0,0,0,3.72-2.85A14.75,14.75,0,0,0,104.22,98a12.66,12.66,0,0,1,1.16-1.44l2-1.79a4,4,0,0,0,.63-.66c1.15-1.66,2.36-3.31,3.42-5A43.67,43.67,0,0,0,74.1,22.68Z"/><path class="cls-1" d="M37.89,63.43a5.2,5.2,0,0,1-1.79,3.91,5.15,5.15,0,0,1-1.3.83,5,5,0,0,1-.75.26c-.25.07-.49.06-.74.14a3.46,3.46,0,0,1-1.64-.07,5.18,5.18,0,0,1-1.5-.56,5.23,5.23,0,0,1-2.06-2.11,5.16,5.16,0,0,1-.5-1.43c0-.25,0-.47-.11-.71a1.82,1.82,0,0,1,0-.79c0-.26.07-.51.14-.77a5.25,5.25,0,0,1,2.94-3.46,4.51,4.51,0,0,1,2.54-.39,6.73,6.73,0,0,1,1.63.41,5.31,5.31,0,0,1,1.31.84,5.21,5.21,0,0,1,1.63,2.64q0,.19.08.38A5,5,0,0,1,37.89,63.43Z"/><path class="cls-1" d="M82.9,41c-.13,0-.1.21-.13.33l-.08.29-.17.64a4.57,4.57,0,0,1-.14.45c0,.09-.13.28,0,.37s.17.06.24.08l.25.08c.34.13.67.29,1,.44s.92.44,1.36.68a26.73,26.73,0,0,1,2.6,1.6,27.41,27.41,0,0,1,4.6,4,27.84,27.84,0,0,1,2.68,3.37,26.36,26.36,0,0,1,3.27,7.35A24.47,24.47,0,0,1,99,63.75a24.06,24.06,0,0,1,.23,3.18v.13A25.61,25.61,0,0,1,80.42,91.72a16,16,0,0,1-3.35.87c-5.64,0-10.77-.4-15.79-3.19A25.83,25.83,0,0,1,51,78.89,26.93,26.93,0,0,1,48,68.79a23.28,23.28,0,0,1,1.41-10.08q.34-1,.76-1.93t.91-1.85q.49-.9,1-1.76t1.18-1.67q.62-.81,1.31-1.57t1.42-1.46q.74-.7,1.54-1.34t1.64-1.22q.85-.58,1.74-1.09t1.82-.95q.94-.44,1.91-.8t2-.65q1-.29,2-.49l1-.17.52-.09a.87.87,0,0,0,.46-.18.18.18,0,0,0,.08-.13.42.42,0,0,0,0-.06.76.76,0,0,1,0-.13.56.56,0,0,0,0-.12,1,1,0,0,1,0-.16c0-.12,0-.24,0-.36s0-.38,0-.57,0-.19,0-.28a1.2,1.2,0,0,0,0-.28,1.08,1.08,0,0,0-.43,0l-.33,0-.53.08q-1,.16-2.08.4t-2,.55q-1,.31-2,.7t-1.88.84q-.92.45-1.81,1A24.46,24.46,0,0,0,56,45.23l-1,.88a25.35,25.35,0,0,0-3,3.57q-.64.79-1.22,1.64T49.64,53q-.52.89-1,1.81t-.84,1.88q-.39,1-.7,2t-.56,2q-.24,1-.4,2.08t-.25,2.13q-.08,1.08-.08,2.16a27.85,27.85,0,0,0,.66,6A25,25,0,0,1,47,75.72c.21,1.94,1.35,3.1,2.32,4.71A32.89,32.89,0,0,0,53,85.7a27.79,27.79,0,0,0,48.4-18.64q0-.38,0-.75a27.81,27.81,0,0,0-.26-3.14,27.5,27.5,0,0,0-2.74-8.68,37,37,0,0,0-3.26-4.82,22.9,22.9,0,0,0-4.24-4.33,27.95,27.95,0,0,0-5-3.19q-.68-.33-1.37-.63l-.7-.29a4,4,0,0,1-.48-.19A.65.65,0,0,0,82.9,41Z"/><path class="cls-1" d="M79.3,40.65c0,.15,0,.31,0,.46a1.36,1.36,0,0,1-.13.42,2.62,2.62,0,0,1-.19.41,2.63,2.63,0,0,1-1.35,1.17,2.55,2.55,0,0,1-.86.19,1.3,1.3,0,0,1-.29,0A3.89,3.89,0,0,1,75.44,43a2.63,2.63,0,0,1-1.22-1.42,2.76,2.76,0,0,1-.25-1,2.76,2.76,0,0,1,.27-.9,2.63,2.63,0,0,1,1-1.25c.19-.12.3-.3.53-.37a1.9,1.9,0,0,1,.72-.16c.13,0,.26-.05.38,0l.1,0c.13.06.26,0,.38.07s.27.16.41.22a2.69,2.69,0,0,1,.83.58,2.49,2.49,0,0,1,.72,1.83Z"/></svg>