<svg id="Layer_1" data-name="Layer 1" xmlns="http://www.w3.org/2000/svg" viewBox="0 0 153.17 127"><defs><style>.cls-1{fill:#FDFDF0;}.cls-2{fill:none;}</style></defs><title>Galaxy</title><path class="cls-1" d="M73.92,104.32a45.77,45.77,0,0,1-1.38-5.19L71.47,95a15,15,0,0,1-.89-3.65,10.18,10.18,0,0,0-1.75,1.31.42.42,0,0,1-.19.09.45.45,0,0,1-.33-.16c-.41-.37-10-9.29-9.92-9.42l0,0c.21-.21-8.46-7.73-8.77-8.83-.13-.46.61-1.27.84-1.63.38-.62.78-1.23,1.16-1.86,0-.08.09-.18,0-.25a.21.21,0,0,0-.1,0c-1.16-.31-12.83-3.32-12.95-3a4.1,4.1,0,0,1,1-1.31c1.11-1.26,2.22-2.52,3.3-3.8,1.41-1.66,2.64-3.6,4-5.36s2.78-2,4.81-2c1.47,0,2.93,0,4.4.07l3.36.1c.77,0,2.29.39,2.9-.19a15.38,15.38,0,0,0,1.46-1.61q1.91-2.4,3.9-4.74,1.87-2.18,3.82-4.29a108.59,108.59,0,0,1,10.9-10.37Q84,32.71,85.79,31.4t3.34-2.34q1.59-1,3.24-2t3.13-1.7A25.51,25.51,0,0,0,98.7,24a19.27,19.27,0,0,1,5.55-2.09q1.33-.37,2.68-.65t2.57-.44q1.22-.16,2.45-.25t2.32-.07q1.1,0,2.2.08c.82.06,1.64.18,2.46.25a1.45,1.45,0,0,1,.41,0,.21.21,0,0,1,.1.17c0,.21.1.42.13.63a34.86,34.86,0,0,1-.28,13.11,49.54,49.54,0,0,1-4.85,13.13,81.47,81.47,0,0,1-10.78,15.36c-1.68,1.93-3.37,3.92-5.16,5.73l-1.39,1.4a107.63,107.63,0,0,1-11.55,10,.42.42,0,0,0-.21.43c0,3.24.46,6.5.56,9.76.06,2,.05,3.11-.85,3.5-.77.55-5.62,5-9.88,9A10.25,10.25,0,0,0,74,104.41ZM71.68,88.15c.07.32.57,1.61.62,1.81.16.56.29,1.12.44,1.69l1,3.87c.39,1.52.67,3.13,1.21,4.59a.27.27,0,0,0,.13.18c.1,0,.2,0,.28-.13a76,76,0,0,1,6.08-5.62l1.11-1c.37-.33,1.23-.79,1.43-1.24s-.06-1.27-.06-1.79c0-1.37-.23-2.63-.31-4-.1-1.67-.21-3.33-.32-5,0-.5-.42-1.06-.22-1.54a1.43,1.43,0,0,1,.38-.47c1-.9,2.06-1.67,3.07-2.52s2.11-1.8,3.14-2.72,2.19-2,3.26-3,2.22-2.12,3.31-3.21,2.22-2.27,3.29-3.43,2.17-2.4,3.22-3.63,2.08-2.51,3.07-3.81,2-2.62,2.87-4,1.78-2.71,2.6-4.11,1.57-2.79,2.26-4.23,1.31-2.86,1.87-4.33a43.61,43.61,0,0,0,1.41-4.41,37.39,37.39,0,0,0,.88-4.48,33,33,0,0,0,.29-4.52q0-1.14-.1-2.27,0-.57-.11-1.14c0-.21,0-1-.27-1a4.17,4.17,0,0,0-.48,0l-.33,0-.67,0q-1.08-.06-2.16-.05t-2.29.1q-1.21.1-2.41.28t-2.54.48q-1.34.3-2.66.7t-2.77.94q-1.46.55-2.89,1.2t-3,1.48q-1.58.84-3.11,1.78T89,31.66q-1.7,1.18-3.33,2.44t-3.43,2.8q-1.8,1.55-3.53,3.19T75,43.68q-1.91,2-3.73,4t-3.82,4.46c-.89,1.08-1.81,2.16-2.64,3.28-.5.68-1,2-2,2-.68,0-1.36,0-2,0-2.35-.07-4.7-.15-7-.2-.9,0-3.53-.44-4.21.18a4.63,4.63,0,0,0-.66,1.1,13,13,0,0,1-1,1.26c-1.71,2.05-3.4,4.55-5.53,6.15-.08.06-.16.13-.16.23a.27.27,0,0,0,.13.2,6.65,6.65,0,0,0,2.24.52l2.64.59,4,.89c.53.12,3.67,1.15,3.92.87-1,1.17-1.42,2.84-2.61,3.86a1.18,1.18,0,0,0-.42.55c-.2.76,1.61,2.07,2.13,2.58l2.66,2.63,3.48,3.44c1.18,1.13,2.37,2.26,3.57,3.38l2.36,2.22a11.26,11.26,0,0,0,2.28,2,.56.56,0,0,0,.26.07.63.63,0,0,0,.24-.07,12.11,12.11,0,0,0,1.58-1c.37-.25.57-.84,1.06-.84C71.67,88.08,71.67,88.1,71.68,88.15Zm12.5,4.11-.12.06Zm.1,0h0ZM50.07,56.89,50,57ZM43.9,98.54l0,0c-.05,0,0-.12,0-.18.1-.45.25-.85.32-1.3A32.53,32.53,0,0,1,50.81,82c.62-.77,1.46-1.47,2-2.28.62.66,1.27,1.28,1.92,1.92L62.21,89l-.73.74c-.28.28-6.94,6.9-16.14,8.5-.47.08-.89.21-1.36.31Zm9-15.79a.29.29,0,0,0-.17,0c-.14,0-.52.84-.67,1q-.41.54-.8,1.1a31.56,31.56,0,0,0-1.74,2.83,29.36,29.36,0,0,0-3,8.13,7.56,7.56,0,0,0,2-.56q1-.36,2.06-.8a31.34,31.34,0,0,0,3.57-1.83q1.49-.89,2.89-1.92.56-.42,1.11-.86c.17-.14.9-.58.93-.78a.43.43,0,0,0-.1-.28,8.92,8.92,0,0,0-1.18-1.22c-.22-.21-1.07-1.33-1.35-1.33l-2.07-2C54.16,83.94,53.35,82.91,52.88,82.74Zm49-37h0a5.88,5.88,0,0,1-3.74-1.36,5,5,0,0,1-.89-.91A6.27,6.27,0,0,1,96,39.74a6,6,0,0,1,.37-2,5.86,5.86,0,0,1,.44-.93,5.66,5.66,0,0,1,.95-1.21,5.94,5.94,0,0,1,9.7,6.36,4.21,4.21,0,0,1-.3.62c-.13.22-.31.42-.42.65a3,3,0,0,1-.65.82A5.9,5.9,0,0,1,101.91,45.71Zm0-9.82a6.74,6.74,0,0,0-.73.11,2.43,2.43,0,0,0-.67.17,3.87,3.87,0,0,0-.06,7.19,4.88,4.88,0,0,0,1.64.24,3.48,3.48,0,0,0,2.53-1.07A3.87,3.87,0,0,0,103,36.06a8.42,8.42,0,0,0-.92-.15ZM91.12,56.25a6.11,6.11,0,0,1-2-.25,5.93,5.93,0,0,1-3.91-6,6.4,6.4,0,0,1,.9-2.83,5.21,5.21,0,0,1,2.08-1.93A6,6,0,0,1,93.59,45a4,4,0,0,1,1.82,1.31,5.94,5.94,0,0,0,.66.81,5.14,5.14,0,0,1,.56,1.06,6,6,0,0,1-1.34,6.44c-.14,0-.62.54-.76.64a5.9,5.9,0,0,1-.89.52,4.08,4.08,0,0,1-1.84.47Zm0-9.75a4.29,4.29,0,0,0-2.71,1.16,3.87,3.87,0,1,0,5.47,0,6.85,6.85,0,0,0-1.16-.78A2.6,2.6,0,0,0,91.12,46.5Z"/><path class="cls-2" d="M106.64,27.12q.45.24.87.52"/></svg>